HIERARCHY
ROOT hip
{
  OFFSET 0.0 0.0 0.0
  CHANNELS 6 Xposition Yposition Zposition Zrotation Yrotation Xrotation
  JOINT torso
  {
    OFFSET 0.0 0.0 0.0
    CHANNELS 3 Zrotation Xrotation Yrotation
    JOINT neck
    {
      OFFSET -31.42098999999993 328.8025209999999 74.3554680000002
      CHANNELS 3 Zrotation Xrotation Yrotation
      JOINT head
      {
        OFFSET 3.3519900000001144 303.81732099999994 206.53942900000015
        CHANNELS 3 Zrotation Xrotation Yrotation
        End Site
        {
          OFFSET 0.0 0.0 0.0
        }
      }
    }
    JOINT left_collar
    {
      OFFSET -31.42098999999993 328.8025209999999 74.3554680000002
      CHANNELS 3 Zrotation Xrotation Yrotation
      JOINT left_upper_arm
      {
        OFFSET -124.490479 -8.162841999999841 8.226441000000023
        CHANNELS 3 Zrotation Xrotation Yrotation
        JOINT left_forearm
        {
          OFFSET -253.595764 -1.5758060000000569 105.0729980000001
          CHANNELS 3 Zrotation Xrotation Yrotation
          JOINT left_hand
          {
            OFFSET -269.48803699999996 0.1478270000000066 -55.346191999999974
            CHANNELS 3 Zrotation Xrotation Yrotation
            End Site
            {
              OFFSET 0.0 0.0 0.0
            }
          }
        }
      }
    }
    JOINT right_collar
    {
      OFFSET -31.42098999999993 328.8025209999999 74.3554680000002
      CHANNELS 3 Zrotation Xrotation Yrotation
      JOINT right_upper_arm
      {
        OFFSET 162.02484099999998 0.46441600000002836 2.2303470000001653
        CHANNELS 3 Zrotation Xrotation Yrotation
        JOINT right_forearm
        {
          OFFSET 240.01246700000004 -25.835875999999985 121.34179699999959
          CHANNELS 3 Zrotation Xrotation Yrotation
          JOINT right_hand
          {
            OFFSET 252.48539699999992 18.910399999999868 -67.53466800000001
            CHANNELS 3 Zrotation Xrotation Yrotation
            End Site
            {
              OFFSET 0.0 0.0 0.0
            }
          }
        }
      }
    }
  }
}
MOTION
Frames: 18
Frame Time: 0.01
-282.82800299999974 259.95935099999974 1590.359619 -0.9601513248727875 -13.01609054892691 14.551924873879976 3.504726538375468 4.951617447879583 -0.16989959832513513 2.311310074984967 -0.2217086325661669 -1.5709871331927965 0.0 0.0 0.0 -1.9753290394357765 0.5181222928240106 -13.291258269110811 57.04513441338843 24.83892243897987 1.018890966849577 27.195571253957254 -2.308075362955326 -13.719222957377006 0.0 0.0 0.0 -5.116815299981985 -0.3604425986725713 -10.289331085230272 -54.98101319460875 18.826405613981446 -17.03034615741229 -37.199730448016794 -1.059522542971551 33.916629226791436 0.0 0.0 0.0
-282.86053499999974 259.9164119999997 1590.723145 -0.7577486109228043 -12.696421666102136 14.199018757855677 3.2125220650539674 4.6565112149086145 -0.15260331844773722 2.2498502458174094 -0.16408704351953526 -1.52917838023706 0.0 0.0 0.0 -1.8698861851224453 0.5155928317814906 -12.856935498716004 57.07849080099278 24.924541718360608 0.9063202857449194 27.15280042709638 -2.323265769546279 -13.641095669290848 0.0 0.0 0.0 -4.977147461175897 -0.3327106052939649 -9.870972402862979 -54.8815394344712 18.613976007797827 -17.27185031102109 -37.25957138854271 -0.964727039494149 34.2704986294451 0.0 0.0 0.0
-282.7427979999997 259.8710019999997 1590.942871 -0.9444624725969237 -13.094688285003729 14.80523936436906 3.4148505220311423 4.971910295673362 -0.15064741648843144 2.400778144082654 -0.024972399419809575 -1.6318410804438663 0.0 0.0 0.0 -2.0283782837813167 0.5081616624372011 -13.287352651996976 56.85365005465193 25.045338961102107 0.5226292483411842 27.348573307673167 -2.387357779955833 -13.449779544644443 0.0 0.0 0.0 -5.112530635467858 -0.3616727665504949 -10.326390423718808 -54.81067095797402 18.65192600743042 -17.170955696959865 -37.25136426577903 -0.9275915507124165 34.41388845772787 0.0 0.0 0.0
-282.8689879999997 259.7983399999997 1591.362427 -0.6683008970009685 -12.624504452383004 14.307269706275454 3.024094195489126 4.546080587086673 -0.1308092057312244 2.28153414394768 0.03652054426297028 -1.5508013487831322 0.0 0.0 0.0 -1.8594957323917667 0.5128361440092047 -12.76541601129809 56.73032640718319 25.105074830371713 0.32193382264860654 27.396298524258466 -2.409754940567711 -13.375929070217344 0.0 0.0 0.0 -4.952956214164501 -0.32578225129723415 -9.743554815552768 -54.62451498497643 18.312317005113247 -17.54212407439125 -37.39904484888082 -0.7438820233546207 35.08864891452137 0.0 0.0 0.0
-282.9122009999997 259.7213439999997 1591.678833 -0.8096967399252084 -12.511399027919172 14.443941786120574 3.0991028590217646 4.404842459574635 -0.162477375325197 2.2904533277347916 0.14848661971986787 -1.5568930843142024 0.0 0.0 0.0 -1.7599063940342896 0.530042205767225 -12.752544540415474 56.47110233169289 25.163992928373656 0.007659795058326487 27.469811256751925 -2.4306493071170294 -13.31811584373001 0.0 0.0 0.0 -4.949890262051066 -0.32478158935206697 -9.72428695282932 -54.490526234970105 18.23475334112402 -17.56827446181877 -37.50860465714889 -0.6368568415271715 35.473570266394326 0.0 0.0 0.0
-282.9978639999997 259.7075199999997 1591.9823 -0.8031814136050532 -12.63497818036832 14.645773348264195 3.0507104854950695 4.492226719684373 -0.14248818868719326 2.3452445234089403 0.22958230153005615 -1.594096022070549 0.0 0.0 0.0 -1.7727486977086933 0.5323321420912446 -12.84195717699478 56.347688658608874 25.26086274233755 -0.2561479592187501 27.567077942324737 -2.4734589388252615 -13.180623552368722 0.0 0.0 0.0 -4.960948159968134 -0.3285466029943075 -9.797493392921236 -54.35932738518536 18.144611775662522 -17.614839979654022 -37.52595721879706 -0.5800574998522319 35.685051954763665 0.0 0.0 0.0
-283.01989699999973 259.79565399999973 1592.054077 -0.8848621662690407 -12.21830705408079 14.24071277167946 3.0371598340066766 4.1592305977014306 -0.18097928668307303 2.1853938183737505 0.2548322590271154 -1.4856438366633977 0.0 0.0 0.0 -1.7073664107068565 0.5105728922429421 -12.195927107216578 56.34436213757791 25.38558724417541 -0.4643815778851617 27.64558895214882 -2.510997987906245 -13.058341101157959 0.0 0.0 0.0 -4.767110983366229 -0.29261984751452524 -9.233144387992601 -54.329443772945254 18.197014884122854 -17.51898651891319 -37.56501018859218 -0.6029307782714726 35.59049697443735 0.0 0.0 0.0
-283.12676999999974 259.6722109999997 1592.656982 -0.9658871705824614 -12.667667667859373 15.202419306373898 3.117923020377228 4.418036441542755 -0.16441861509767342 2.4660628010366623 0.45391694835850643 -1.6759581128033065 0.0 0.0 0.0 -1.8740992982345113 0.5234454056393457 -13.027558649665174 56.18234336947943 25.507208445226837 -0.803051878392262 27.634456969291232 -2.5064645659042215 -13.072440866686561 0.0 0.0 0.0 -4.942278506066814 -0.3365975300233021 -10.029465385658611 -54.274854373806775 18.174047453718668 -17.517131807998137 -37.56022885399582 -0.4775696282233911 36.06521886166667 0.0 0.0 0.0
-283.2245789999997 259.6515199999997 1592.941772 -1.1172302161850818 -12.769975008151963 15.363900005200719 3.203254174937009 4.490879495124507 -0.17154223286683812 2.4996682471566887 0.5425156758805921 -1.6986639029775557 0.0 0.0 0.0 -1.8743329068190697 0.5227568546545837 -13.014760808663512 56.06616537267355 25.5972697850456 -1.0514218468538827 27.708112500537002 -2.5104569230392375 -13.084272945459732 0.0 0.0 0.0 -4.928078775790931 -0.3336056055013646 -9.981396643649372 -54.07786263053251 18.043007622068576 -17.58121800793739 -37.61488413974209 -0.37764726791451775 36.42986859557236 0.0 0.0 0.0
-283.35006699999974 259.61871299999973 1593.255005 -1.168102199730862 -12.843679675326802 15.571488062628013 3.189107108918708 4.517753641166142 -0.16551154831987458 2.5480710109457583 0.6418116579110016 -1.73134461583679 0.0 0.0 0.0 -1.818566837810772 0.5361371766252438 -13.078483292949082 55.820970801338426 25.64880723287792 -1.3487229446536961 27.832146931132 -2.515749738807211 -13.109814079283568 0.0 0.0 0.0 -4.927666624489967 -0.3350676652618673 -10.018359679825913 -53.92029791241979 17.951387149291385 -17.613594340574267 -37.56040643933529 -0.3108361507929512 36.69489626182179 0.0 0.0 0.0
-283.52023299999973 259.5335079999997 1593.592163 -1.2354068990059484 -12.847679778833122 15.704738461963771 3.178837909770173 4.482993338401137 -0.16790044195200232 2.563902109430728 0.7366419418546098 -1.7419604066005157 0.0 0.0 0.0 -1.7950267082984082 0.5363086730792473 -12.998044591816619 55.73677453904961 25.781835355411772 -1.6422453550795857 27.858263342118807 -2.513105623757366 -13.130243751859947 0.0 0.0 0.0 -4.875352842097715 -0.32851057828612784 -9.950955173416576 -53.75796765506106 17.821977094094997 -17.69902772973998 -37.60760946499357 -0.20724534502010555 37.07379533138895 0.0 0.0 0.0
-283.70068399999974 259.4995119999997 1593.922607 -1.2870254770879015 -12.727788505917275 15.776587698439899 3.1454378704148374 4.329049487504917 -0.18070302092832682 2.5303505029908617 0.8404234744566029 -1.7191844161691106 0.0 0.0 0.0 -1.8062834379493304 0.5239030695869168 -12.795177060577705 55.75859796820648 25.904575509845426 -1.8261751467336038 27.82762017416203 -2.4758535307426968 -13.268365334865669 0.0 0.0 0.0 -4.841353326304327 -0.31987624844370977 -9.795906115925897 -53.56025319137395 17.690894861441638 -17.76471219888343 -37.73333469553429 -0.05834421793969848 37.60004126347078 0.0 0.0 0.0
-283.8303529999997 259.4663389999997 1594.11792 -1.708651596963078 -13.04933161974135 16.474961037345334 3.5272136277436505 4.567847745620787 -0.22310093049396215 2.6726990098025345 0.9470021959105096 -1.8152054916622473 0.0 0.0 0.0 -1.9192925843730426 0.5243620534281044 -13.20985393825082 55.64193467547512 25.993496037607407 -2.0757058971069196 27.919139939373867 -2.4631357270710637 -13.35309787435081 0.0 0.0 0.0 -4.935327747619392 -0.34216792828697945 -10.179901511959258 -53.313894452606135 17.50702014510664 -17.87822644670719 -37.676787728725124 0.07751625690726367 38.12563052354034 0.0 0.0 0.0
-284.1973569999997 259.38064599999973 1594.585938 -1.4372716998307213 -12.678296947636273 16.054870866455698 3.1220120296043206 4.191913819004472 -0.19323682816992377 2.524123103903163 1.04544969842227 -1.714806884854343 0.0 0.0 0.0 -1.7162468489645242 0.5349423409378716 -12.696073642026837 55.29508490355664 26.026604940967882 -2.4376430332791097 28.084493422655292 -2.4370807596131283 -13.517036122224617 0.0 0.0 0.0 -4.7606148199012726 -0.3074201844222576 -9.625009995477201 -53.15005599536156 17.44641322860122 -17.862345953288465 -37.671916561900034 0.15071304678773875 38.401774823965084 0.0 0.0 0.0
-284.5552059999997 259.2524409999997 1595.000488 -1.4752603035288578 -12.53246788777583 16.157733271835234 3.049165401574594 3.9955675141588225 -0.2034588430229785 2.50457255564316 1.1497481681236887 -1.7015389120390305 0.0 0.0 0.0 -1.6372122729189897 0.5430287248828567 -12.581043226798398 55.24750082997732 26.107421435611425 -2.6143760112829595 27.99716705194012 -2.3443435044590677 -13.856050864563116 0.0 0.0 0.0 -4.701159528344668 -0.2972731273857059 -9.46969145361484 -52.93618179029284 17.31279115290094 -17.923529143872017 -37.76507136560702 0.31784710292299495 38.998573392129785 0.0 0.0 0.0
-284.88012699999973 259.11517299999974 1595.373047 -1.5225308770238197 -12.64223861338176 16.414841200118733 3.0133259698656882 4.030961183334271 -0.1921709185663193 2.5177320467107753 1.2674734764111182 -1.710317204453243 0.0 0.0 0.0 -1.6373220580467611 0.5437119877117874 -12.5944157084287 55.12250808013913 26.22263109410884 -2.9178652423881637 28.121700149652185 -2.307241157864977 -14.046643580575108 0.0 0.0 0.0 -4.656741711202344 -0.2956437200624837 -9.507591521369532 -52.70092411068406 17.217805944021677 -17.913354214484364 -37.802594843551084 0.4431911320844996 39.45413871537106 0.0 0.0 0.0
-285.1898499999997 259.0069889999997 1595.816895 -1.6612378616814267 -12.759497636201065 16.816926120332976 3.0696330206761604 4.056090980600693 -0.19995244318654617 2.553653895168367 1.3925683292590398 -1.734394840669022 0.0 0.0 0.0 -1.69408350664879 0.5379780255861112 -12.67825860516694 54.91667593701483 26.325310140226758 -3.274464661491013 28.310839647243476 -2.269280721234273 -14.260237687144953 0.0 0.0 0.0 -4.663801827564014 -0.30130380554248737 -9.643514301851786 -52.511735996539684 17.116963100627284 -17.942370402425304 -37.7386794152778 0.5500548040350519 39.875050624823686 0.0 0.0 0.0
-285.5411989999997 258.9078979999997 1596.14978 -1.8431123080897782 -12.841014603167583 17.06334102923242 3.144903472363931 4.080627050982204 -0.21144214232236136 2.539349456275265 1.4940892863281574 -1.7246750484238622 0.0 0.0 0.0 -1.7321121805461237 0.5288301286013493 -12.632734744589108 54.807312586082794 26.424689638103366 -3.5394513040156954 28.45288888981386 -2.211797728112675 -14.53269019110384 0.0 0.0 0.0 -4.602591269230333 -0.29621556650164954 -9.623078735774717 -52.347781917171744 16.966780752180767 -18.063211564030542 -37.76283058714268 0.7169664442469079 40.48918203912637 0.0 0.0 0.0
